<?xml version="1.0" encoding="utf-8"?>
<!-- Generator: Adobe Illustrator 21.0.0, SVG Export Plug-In . SVG Version: 6.00 Build 0)  -->
<svg version="1.1" id="Calque_1" xmlns="http://www.w3.org/2000/svg" xmlns:xlink="http://www.w3.org/1999/xlink" x="0px" y="0px"
	 viewBox="0 0 106.7 106.7" style="enable-background:new 0 0 106.7 106.7;" xml:space="preserve">
<style type="text/css">
	.st0{fill:none;stroke:#FFFFFF;stroke-width:2;stroke-miterlimit:10;}
	.st1{fill:#FFFFFF;}
	.st2{fill:none;stroke:#FFFFFF;stroke-miterlimit:10;}
</style>
<g>
	<line class="st0" x1="14.5" y1="-120.5" x2="92.5" y2="-120.5"/>
	<path class="st1" d="M53.5-195.8c-12,0-18.8,9-18.8,18.3c0,9.3,18.8,36.8,18.8,36.8s18.3-28.8,18.3-36.8S65.5-195.8,53.5-195.8z
		 M53.5-167.5c-4.8,0-8.7-3.9-8.7-8.7c0-4.8,3.9-8.7,8.7-8.7s8.7,3.9,8.7,8.7C62.2-171.4,58.3-167.5,53.5-167.5z"/>
	<line class="st0" x1="53.3" y1="-137.2" x2="53.3" y2="-81.3"/>
	<path class="st0" d="M64.4-155.3c7.4,6.6,12.4,19.7,12.4,34.8c0,21.7-10.4,39.3-23.3,39.3c21.7,0,39.3-17.6,39.3-39.3
		c0-17.4-11.3-32.2-27-37.4 M40.7-157.7c-15.4,5.3-26.5,20-26.5,37.2c0,21.7,17.6,39.3,39.3,39.3c-12.9,0-23.3-17.6-23.3-39.3
		c0-14.8,4.9-27.7,12.1-34.4"/>
</g>
<g>
	<path class="st1" d="M78.3,98.1l0.9,1.8C89,94.5,96.8,86.1,101.6,76l-1.7-1.1C95.3,84.7,87.7,92.9,78.3,98.1z M102.1,69.1l1.8,0.8
		c0.9-2.7,1.6-5.6,2-8.5l-2-0.3C103.6,63.9,103,66.6,102.1,69.1z M53.3,0C23.9,0,0,23.9,0,53.3s23.9,53.3,53.3,53.3
		c7.2,0,14.1-1.5,20.4-4.1l-1-1.8c-6,2.5-12.6,3.8-19.5,3.8C25,104.7,2,81.6,2,53.3C2,25,25,2,53.3,2s51.3,23,51.3,51.3
		c0,0.5,0,1,0,1.5h2c0-0.5,0-1,0-1.5C106.7,23.9,82.7,0,53.3,0z"/>
	<g>
		<g>
			<path class="st1" d="M59.8,49.3c-0.3-0.5-0.6-1.1-1-1.6C59.2,48.2,59.6,48.8,59.8,49.3C59.9,49.3,59.9,49.3,59.8,49.3z
				 M59.9,49.4C59.9,49.4,59.9,49.3,59.9,49.4c2.3,4,3.3,8.1,3.3,11.3C63.2,57.3,62.2,53.3,59.9,49.4z M48.6,39.6c0.1,0,0.1,0,0.2,0
				C48.7,39.6,48.6,39.6,48.6,39.6z M58.9,47.7c-2.9-4.3-6.7-7.3-10.1-8.1C51.7,40.3,55.8,43.2,58.9,47.7z M61.3,65.9
				c-3.3,2-9.5-2.3-13.6-9.6c-4.2-7.2-4.9-14.9-1.5-16.6c0.6-0.3,1.4-0.3,2.4-0.1c-1.7-0.4-3.2-0.2-4.6,0.5
				c-4.4,2.5-4.4,10.8,0,18.4c4.4,7.6,11.5,11.8,15.9,9.2c1.7-1,2.7-2.7,3.1-5C62.7,64.3,62.2,65.4,61.3,65.9z"/>
		</g>
		<g>
			<path class="st2" d="M59.8,49.3c-0.3-0.5-0.6-1.1-1-1.6C59.2,48.2,59.6,48.8,59.8,49.3C59.9,49.3,59.9,49.3,59.8,49.3z
				 M59.9,49.4C59.9,49.4,59.9,49.3,59.9,49.4c2.3,4,3.3,8.1,3.3,11.3C63.2,57.3,62.2,53.3,59.9,49.4z M48.6,39.6c0.1,0,0.1,0,0.2,0
				C48.7,39.6,48.6,39.6,48.6,39.6z M58.9,47.7c-2.9-4.3-6.7-7.3-10.1-8.1C51.7,40.3,55.8,43.2,58.9,47.7z M61.3,65.9
				c-3.3,2-9.5-2.3-13.6-9.6c-4.2-7.2-4.9-14.9-1.5-16.6c0.6-0.3,1.4-0.3,2.4-0.1c-1.7-0.4-3.2-0.2-4.6,0.5
				c-4.4,2.5-4.4,10.8,0,18.4c4.4,7.6,11.5,11.8,15.9,9.2c1.7-1,2.7-2.7,3.1-5C62.7,64.3,62.2,65.4,61.3,65.9z"/>
		</g>
	</g>
	<path class="st0" d="M31.9,32.3c0,0,0.8-6.7-1.3-11.4l3.7-2.7c0,0,5.2,7.4,9.7,7.4s6.3-4.9,6.3-4.9l4,2.9c0,0,1,7.3,5.1,11.3
		s9.7,4.1,9.7,4.1L73,46c0,0-2.8,3.1-2.8,6.1s1.8,8.9,8.3,14.3v4.9c0,0-8.5-1.4-8.5,6.2c0,4.7,2.9,8.7,2.9,8.7l-3.1,1.9
		c0,0-5.5-5.9-9.4-6.9c0,0-3.1-1.3-6.8,4.8c0,0-4.3-1.7-4.9-4.5s-0.5-6.4-4.3-10.1c-3.7-3.7-9.8-4.1-9.8-4.1L31.7,62
		c0,0,2.2-2.3,2.2-7.2s-3.3-9.9-9-14.7v-5.3C24.8,34.8,31.8,36.2,31.9,32.3z"/>
	<path class="st1" d="M70,77.5c0,4.7,4.3,8.9,4.3,8.9l2.2-1.4c-0.7-0.6-2.5-5-2.3-8.3s5.2-4.4,5.2-4.4S70,69.8,70,77.5z M37.1,15.9
		l-2.5,0.9c0,0,4.9,8.8,9.4,8.8c1.8,0,2.6-1.5,3.5-2.5C45.5,24.8,37.1,15.9,37.1,15.9z M74.6,51.3c0-3.3,2.6-7.2,2.6-7.2l-4.5-7.8
		c0,0-0.5-0.8-6.3-0.8c-5.8,0-8.4-14-8.4-14l-5.4-3.7l-2.6,1.5l4.5,4.3c0,0,1,7.3,5.1,11.3c4.1,4.1,9.7,4.1,9.7,4.1L73,46
		c0,0-2.8,3.1-2.8,6.1s1.8,8.9,8.3,14.3l1,6l3.3-1.3v-6.8C79.9,64.3,74.6,54.5,74.6,51.3z"/>
	<path class="st2" d="M63.2,60.5c0,0-0.1,1.9-0.3,2.7"/>
</g>
</svg>
