<svg xmlns="http://www.w3.org/2000/svg" width="15.299" height="17.848" viewBox="0 0 15.299 17.848"><path d="M17.192,5.988a2.318,2.318,0,0,1,.478.757,2.3,2.3,0,0,1,.2.876V19.1a.952.952,0,0,1-.956.956H3.527a.952.952,0,0,1-.956-.956V3.16A.952.952,0,0,1,3.527,2.2h8.924a2.3,2.3,0,0,1,.876.2,2.318,2.318,0,0,1,.757.478ZM12.77,3.558V7.3h3.745a1.088,1.088,0,0,0-.219-.408L13.178,3.777a1.088,1.088,0,0,0-.408-.219Zm3.825,15.219V8.578H12.451a.952.952,0,0,1-.956-.956V3.478H3.846v15.3H16.595Zm-5.119-5.906a7.578,7.578,0,0,0,.837.558,9.884,9.884,0,0,1,1.165-.07q1.464,0,1.763.488a.481.481,0,0,1,.02.518.029.029,0,0,1-.01.02l-.02.02v.01q-.06.378-.707.378a4.109,4.109,0,0,1-1.145-.2,7.263,7.263,0,0,1-1.295-.528,17.935,17.935,0,0,0-3.9.827Q6.654,17.5,5.768,17.5a.579.579,0,0,1-.279-.07l-.239-.12q-.01-.01-.06-.05a.412.412,0,0,1-.06-.359,2.163,2.163,0,0,1,.558-.911A4.813,4.813,0,0,1,7,15.032a.145.145,0,0,1,.229.06.057.057,0,0,1,.02.04q.518-.847,1.066-1.962a15.2,15.2,0,0,0,1.036-2.61,8.051,8.051,0,0,1-.3-1.589A3.873,3.873,0,0,1,9.114,7.7q.11-.4.418-.4h.219a.42.42,0,0,1,.349.149.8.8,0,0,1,.09.677.216.216,0,0,1-.04.08.259.259,0,0,1,.01.08v.3a13.043,13.043,0,0,1-.139,1.912,5.039,5.039,0,0,0,1.454,2.37ZM5.738,16.964A4.4,4.4,0,0,0,7.1,15.391a5.678,5.678,0,0,0-.872.837A3.311,3.311,0,0,0,5.738,16.964ZM9.7,7.8a2.962,2.962,0,0,0-.02,1.315q.01-.07.07-.438,0-.03.07-.428a.224.224,0,0,1,.04-.08.029.029,0,0,1-.01-.02.02.02,0,0,0-.005-.015.02.02,0,0,1,0-.015.573.573,0,0,0-.129-.359.029.029,0,0,1-.01.02V7.8ZM8.467,14.385a14.609,14.609,0,0,1,2.829-.807,1.5,1.5,0,0,1-.129-.095,1.784,1.784,0,0,1-.159-.134A5.276,5.276,0,0,1,9.742,11.6a13.31,13.31,0,0,1-.827,1.962q-.3.558-.448.827Zm6.434-.159a2.384,2.384,0,0,0-1.394-.239,3.767,3.767,0,0,0,1.235.279.966.966,0,0,0,.179-.01q0-.01-.02-.03Z" transform="translate(-2.571 -2.204)"/></svg>