<?xml version="1.0" encoding="utf-8"?>
<!-- Generator: Adobe Illustrator 21.0.0, SVG Export Plug-In . SVG Version: 6.00 Build 0)  -->
<svg version="1.1" id="Calque_1" xmlns="http://www.w3.org/2000/svg" xmlns:xlink="http://www.w3.org/1999/xlink" x="0px" y="0px"
	 viewBox="0 0 80.7 115.7" style="enable-background:new 0 0 80.7 115.7;" xml:space="preserve">
<style type="text/css">
	.st0{fill:none;stroke:#FFFFFF;stroke-width:2;stroke-miterlimit:10;}
	.st1{fill:#FFFFFF;}
	.st2{fill:none;stroke:#FFFFFF;stroke-miterlimit:10;}
</style>
<g>
	<line class="st0" x1="1.3" y1="75.3" x2="79.3" y2="75.3"/>
	<path class="st1" d="M40.3,0c-12,0-18.8,9-18.8,18.3c0,9.3,18.8,36.8,18.8,36.8s18.3-28.8,18.3-36.8S52.3,0,40.3,0z M40.3,28.3
		c-4.8,0-8.7-3.9-8.7-8.7c0-4.8,3.9-8.7,8.7-8.7s8.7,3.9,8.7,8.7C49,24.5,45.1,28.3,40.3,28.3z"/>
	<line class="st0" x1="40.1" y1="58.7" x2="40.1" y2="114.6"/>
	<path class="st0" d="M51.2,40.6c7.4,6.6,12.4,19.7,12.4,34.8c0,21.7-10.4,39.3-23.3,39.3c21.7,0,39.3-17.6,39.3-39.3
		c0-17.4-11.3-32.2-27-37.4 M27.5,38.2C12.1,43.5,1,58.1,1,75.3c0,21.7,17.6,39.3,39.3,39.3C27.4,114.7,17,97.1,17,75.3
		c0-14.8,4.9-27.7,12.1-34.4"/>
</g>
<g>
	<path class="st1" d="M65.2,294l0.9,1.8c9.7-5.4,17.6-13.8,22.3-23.9l-1.7-1.1C82.1,280.6,74.6,288.7,65.2,294z M89,265l1.8,0.8
		c0.9-2.7,1.6-5.6,2-8.5l-2-0.3C90.5,259.8,89.8,262.4,89,265z M40.2,195.8c-29.4,0-53.3,23.9-53.3,53.3s23.9,53.3,53.3,53.3
		c7.2,0,14.1-1.5,20.4-4.1l-1-1.8c-6,2.5-12.6,3.8-19.5,3.8c-28.3,0-51.3-23-51.3-51.3c0-28.3,23-51.3,51.3-51.3s51.3,23,51.3,51.3
		c0,0.5,0,1,0,1.5h2c0-0.5,0-1,0-1.5C93.5,219.8,69.6,195.8,40.2,195.8z"/>
	<g>
		<g>
			<path class="st1" d="M46.7,245.1c-0.3-0.5-0.6-1.1-1-1.6C46,244.1,46.4,244.6,46.7,245.1C46.7,245.1,46.7,245.1,46.7,245.1z
				 M46.7,245.2C46.7,245.2,46.7,245.2,46.7,245.2c2.3,4,3.3,8.1,3.3,11.3C50.1,253.2,49,249.1,46.7,245.2z M35.4,235.4
				c0.1,0,0.1,0,0.2,0C35.5,235.5,35.5,235.4,35.4,235.4z M45.7,243.6c-2.9-4.3-6.7-7.3-10.1-8.1C38.5,236.2,42.6,239,45.7,243.6z
				 M48.1,261.7c-3.3,2-9.5-2.3-13.6-9.6c-4.2-7.2-4.9-14.9-1.5-16.6c0.6-0.3,1.4-0.3,2.4-0.1c-1.7-0.4-3.2-0.2-4.6,0.5
				c-4.4,2.5-4.4,10.8,0,18.4c4.4,7.6,11.5,11.8,15.9,9.2c1.7-1,2.7-2.7,3.1-5C49.6,260.1,49,261.2,48.1,261.7z"/>
		</g>
		<g>
			<path class="st2" d="M46.7,245.1c-0.3-0.5-0.6-1.1-1-1.6C46,244.1,46.4,244.6,46.7,245.1C46.7,245.1,46.7,245.1,46.7,245.1z
				 M46.7,245.2C46.7,245.2,46.7,245.2,46.7,245.2c2.3,4,3.3,8.1,3.3,11.3C50.1,253.2,49,249.1,46.7,245.2z M35.4,235.4
				c0.1,0,0.1,0,0.2,0C35.5,235.5,35.5,235.4,35.4,235.4z M45.7,243.6c-2.9-4.3-6.7-7.3-10.1-8.1C38.5,236.2,42.6,239,45.7,243.6z
				 M48.1,261.7c-3.3,2-9.5-2.3-13.6-9.6c-4.2-7.2-4.9-14.9-1.5-16.6c0.6-0.3,1.4-0.3,2.4-0.1c-1.7-0.4-3.2-0.2-4.6,0.5
				c-4.4,2.5-4.4,10.8,0,18.4c4.4,7.6,11.5,11.8,15.9,9.2c1.7-1,2.7-2.7,3.1-5C49.6,260.1,49,261.2,48.1,261.7z"/>
		</g>
	</g>
	<path class="st0" d="M18.7,228.2c0,0,0.8-6.7-1.3-11.4l3.7-2.7c0,0,5.2,7.4,9.7,7.4s6.3-4.9,6.3-4.9l4,2.9c0,0,1,7.3,5.1,11.3
		s9.7,4.1,9.7,4.1l3.9,6.9c0,0-2.8,3.1-2.8,6.1s1.8,8.9,8.3,14.3v4.9c0,0-8.5-1.4-8.5,6.2c0,4.7,2.9,8.7,2.9,8.7l-3.1,1.9
		c0,0-5.5-5.9-9.4-6.9c0,0-3.1-1.3-6.8,4.8c0,0-4.3-1.7-4.9-4.5s-0.5-6.4-4.3-10.1c-3.7-3.7-9.8-4.1-9.8-4.1l-3.1-5.3
		c0,0,2.2-2.3,2.2-7.2c0-4.8-3.3-9.9-9-14.7v-5.3C11.7,230.7,18.6,232.1,18.7,228.2z"/>
	<path class="st1" d="M56.8,273.3c0,4.7,4.3,8.9,4.3,8.9l2.2-1.4c-0.7-0.6-2.5-5-2.3-8.3s5.2-4.4,5.2-4.4S56.8,265.7,56.8,273.3z
		 M23.9,211.8l-2.5,0.9c0,0,4.9,8.8,9.4,8.8c1.8,0,2.6-1.5,3.5-2.5C32.3,220.6,23.9,211.8,23.9,211.8z M61.4,247.1
		c0-3.3,2.6-7.2,2.6-7.2l-4.5-7.8c0,0-0.5-0.8-6.3-0.8c-5.8,0-8.4-14-8.4-14l-5.4-3.7l-2.6,1.5l4.5,4.3c0,0,1,7.3,5.1,11.3
		c4.1,4.1,9.7,4.1,9.7,4.1l3.9,6.9c0,0-2.8,3.1-2.8,6.1s1.8,8.9,8.3,14.3l1,6l3.3-1.3v-6.8C66.8,260.1,61.4,250.3,61.4,247.1z"/>
	<path class="st2" d="M50,256.3c0,0-0.1,1.9-0.3,2.7"/>
</g>
</svg>
