<svg xmlns="http://www.w3.org/2000/svg" width="99.375" height="151.13" viewBox="0 0 99.375 151.13">
  <g id="Groupe_117" data-name="Groupe 117" transform="translate(-431.075 -533.467)">
    <path id="Tracé_39" data-name="Tracé 39" d="M530.45,533.467H431.075v87.314l99.375,26.478Z" fill="#1c252c"/>
    <g id="Groupe_9" data-name="Groupe 9" transform="translate(443.628 546.264)">
      <path id="Tracé_40" data-name="Tracé 40" d="M1161.034,1263.125a10.415,10.415,0,1,0-10.414,10.236A10.326,10.326,0,0,0,1161.034,1263.125Z" transform="translate(-1113.543 -1225.901)" fill="#eb600a"/>
      <path id="Tracé_41" data-name="Tracé 41" d="M694.055,773.281v-8.39a37.216,37.216,0,0,0-7.117.926v8.337a19.35,19.35,0,0,1-19.349,19.35h-8.459a37.184,37.184,0,0,0-.956,7.052h8.607A27.275,27.275,0,0,0,694.055,773.281Z" transform="translate(-658.166 -764.889)" fill="#eb600a"/>
      <path id="Tracé_42" data-name="Tracé 42" d="M710.75,799.266v-7.544a36.951,36.951,0,0,0-7.2,2.973v6.193a8.754,8.754,0,0,1-8.754,8.754h-6.214a36.937,36.937,0,0,0-2.955,7.1h7.646A17.475,17.475,0,0,0,710.75,799.266Z" transform="translate(-684.105 -790.236)" fill="#eb600a"/>
      <path id="Tracé_43" data-name="Tracé 43" d="M772.107,871.352V866.86a37.367,37.367,0,0,0-11.767,11.756h4.5A7.264,7.264,0,0,0,772.107,871.352Z" transform="translate(-754.684 -861.219)" fill="#eb600a"/>
      <path id="Tracé_44" data-name="Tracé 44" d="M692.424,1626.171h-7.7a36.948,36.948,0,0,0,2.913,7.1h6.3a8.754,8.754,0,0,1,8.754,8.754v6.363a36.949,36.949,0,0,0,7.2,2.973v-7.714A17.475,17.475,0,0,0,692.424,1626.171Z" transform="translate(-683.253 -1578.538)" fill="#eb600a"/>
      <path id="Tracé_45" data-name="Tracé 45" d="M763.03,1790.866h-4.609a37.366,37.366,0,0,0,11.873,11.926v-4.662A7.264,7.264,0,0,0,763.03,1790.866Z" transform="translate(-752.871 -1734.125)" fill="#eb600a"/>
      <path id="Tracé_46" data-name="Tracé 46" d="M1386.621,793.475h-8.515a19.35,19.35,0,0,1-19.349-19.35v-8.35a37.217,37.217,0,0,0-7.117-.916v8.392a27.275,27.275,0,0,0,27.275,27.275h8.637v-.548A37.155,37.155,0,0,0,1386.621,793.475Z" transform="translate(-1313.283 -764.86)" fill="#eb600a"/>
      <path id="Tracé_47" data-name="Tracé 47" d="M1536.247,816.466h7.7a36.95,36.95,0,0,0-2.955-7.1h-6.269a8.754,8.754,0,0,1-8.754-8.754V794.39a36.936,36.936,0,0,0-7.2-2.959v7.56A17.475,17.475,0,0,0,1536.247,816.466Z" transform="translate(-1471.173 -789.962)" fill="#eb600a"/>
      <path id="Tracé_48" data-name="Tracé 48" d="M1692.8,878.018h4.558a37.371,37.371,0,0,0-11.822-11.791v4.527A7.264,7.264,0,0,0,1692.8,878.018Z" transform="translate(-1628.716 -860.621)" fill="#eb600a"/>
      <path id="Tracé_49" data-name="Tracé 49" d="M1518.772,1643.646v7.73a36.947,36.947,0,0,0,7.2-2.959v-6.393a8.754,8.754,0,0,1,8.754-8.754h6.36a36.944,36.944,0,0,0,2.913-7.1h-7.751A17.475,17.475,0,0,0,1518.772,1643.646Z" transform="translate(-1471.173 -1578.538)" fill="#eb600a"/>
      <path id="Tracé_50" data-name="Tracé 50" d="M1685.538,1798.13v4.7a37.369,37.369,0,0,0,11.928-11.961H1692.8A7.264,7.264,0,0,0,1685.538,1798.13Z" transform="translate(-1628.716 -1734.125)" fill="#eb600a"/>
      <path id="Tracé_51" data-name="Tracé 51" d="M666.677,1460.5h-8.613a37.2,37.2,0,0,0,.923,7.052h8.5a19.35,19.35,0,0,1,19.349,19.35v8.507a37.1,37.1,0,0,0,4.812.779q.88.084,1.771.127c.178.009.356.015.535.021v-.148h0v-8.412A27.275,27.275,0,0,0,666.677,1460.5Z" transform="translate(-658.064 -1422.028)" fill="#eb600a"/>
      <path id="Tracé_52" data-name="Tracé 52" d="M1351.64,1487.774v8.412h0v.15q.268-.008.535-.021.919-.043,1.826-.129a37.111,37.111,0,0,0,4.757-.766V1486.9a19.349,19.349,0,0,1,19.349-19.35h8.554a37.173,37.173,0,0,0,.891-6.334v-.717h-8.637A27.275,27.275,0,0,0,1351.64,1487.774Z" transform="translate(-1313.283 -1422.028)" fill="#eb600a"/>
    </g>
    <path id="Tracé_53" data-name="Tracé 53" d="M1945.1,2665.1h15.645v4.13h-5.291v12.6h-5.126v-12.6H1945.1Z" transform="translate(-1430.293 -2013.745)" fill="#1c252c"/>
    <g id="Groupe_10" data-name="Groupe 10" transform="translate(431.075 651.067)">
      <path id="Tracé_54" data-name="Tracé 54" d="M431.076,2665.1H436.2V2677.7h8v4.119H431.076Z" transform="translate(-431.076 -2664.812)" fill="#1c252c"/>
      <path id="Tracé_55" data-name="Tracé 55" d="M712.429,2665.1h13.738v3.571h-8.6v2.658h7.978v3.411h-7.978v3.3h8.849v3.788H712.429Z" transform="translate(-696.869 -2664.812)" fill="#1c252c"/>
      <path id="Tracé_56" data-name="Tracé 56" d="M1015.685,2665.1h12.674v3.594h-7.525v2.92h6.428v3.377h-6.428v6.834h-5.149Z" transform="translate(-983.355 -2664.812)" fill="#1c252c"/>
      <path id="Tracé_57" data-name="Tracé 57" d="M1283.132,2668.6a8.662,8.662,0,0,1,2.263-6.377,8.481,8.481,0,0,1,6.3-2.282,8.631,8.631,0,0,1,6.382,2.242,8.494,8.494,0,0,1,2.241,6.281,10.369,10.369,0,0,1-.979,4.809,7.008,7.008,0,0,1-2.829,2.92,9.273,9.273,0,0,1-4.611,1.044,10.533,10.533,0,0,1-4.645-.9,7.017,7.017,0,0,1-2.982-2.852A9.532,9.532,0,0,1,1283.132,2668.6Zm5.126.023a5.639,5.639,0,0,0,.934,3.639,3.513,3.513,0,0,0,5.1.023,6.226,6.226,0,0,0,.905-3.89,5.2,5.2,0,0,0-.945-3.451,3.218,3.218,0,0,0-2.563-1.09,3.1,3.1,0,0,0-2.49,1.107A5.659,5.659,0,0,0,1288.258,2668.621Z" transform="translate(-1236.011 -2659.939)" fill="#1c252c"/>
      <path id="Tracé_58" data-name="Tracé 58" d="M1645.116,2681.822V2665.1h8.544a12.33,12.33,0,0,1,3.633.411,3.875,3.875,0,0,1,2.026,1.523,4.741,4.741,0,0,1-1.439,6.749,6.158,6.158,0,0,1-1.8.661,5.119,5.119,0,0,1,1.334.617,5.206,5.206,0,0,1,.82.88,6.58,6.58,0,0,1,.718,1.039l2.482,4.846h-5.792l-2.74-5.111a3.891,3.891,0,0,0-.928-1.289,2.141,2.141,0,0,0-1.256-.388h-.453v6.789Zm5.149-9.949h2.161a7.642,7.642,0,0,0,1.358-.228,1.353,1.353,0,0,0,.832-.525,1.7,1.7,0,0,0-.187-2.213,3.061,3.061,0,0,0-1.912-.433h-2.252Z" transform="translate(-1577.976 -2664.812)" fill="#1c252c"/>
    </g>
    <rect id="Rectangle_15" data-name="Rectangle 15" width="99.375" height="12.283" transform="translate(431.075 672.315)" fill="#1c252c"/>
    <g id="Groupe_11" data-name="Groupe 11" transform="translate(527.026 664.299)">
      <path id="Tracé_59" data-name="Tracé 59" d="M2167.807,2899.211a1.756,1.756,0,0,1,.842.221,1.573,1.573,0,0,1,.64.633,1.72,1.72,0,0,1,0,1.71,1.588,1.588,0,0,1-.633.634,1.72,1.72,0,0,1-1.7,0,1.6,1.6,0,0,1-.634-.634,1.712,1.712,0,0,1,0-1.71,1.58,1.58,0,0,1,.641-.633A1.756,1.756,0,0,1,2167.807,2899.211Zm0,.283a1.459,1.459,0,0,0-.7.185,1.327,1.327,0,0,0-.534.529,1.425,1.425,0,0,0,0,1.425,1.345,1.345,0,0,0,.53.529,1.424,1.424,0,0,0,1.42,0,1.338,1.338,0,0,0,.529-.529,1.43,1.43,0,0,0,0-1.425,1.316,1.316,0,0,0-.534-.529A1.459,1.459,0,0,0,2167.807,2899.494Zm-.751,2.375v-1.842h.633a1.542,1.542,0,0,1,.47.051.453.453,0,0,1,.231.178.471.471,0,0,1,.086.27.49.49,0,0,1-.144.352.57.57,0,0,1-.382.168.506.506,0,0,1,.157.1,2.1,2.1,0,0,1,.272.365l.225.361h-.363l-.163-.29a1.479,1.479,0,0,0-.311-.429.38.38,0,0,0-.238-.064h-.175v.783Zm.3-1.037h.361a.581.581,0,0,0,.353-.077.265.265,0,0,0,.049-.35.269.269,0,0,0-.126-.1.932.932,0,0,0-.3-.032h-.338Z" transform="translate(-2166.094 -2899.211)" fill="#1d252c"/>
    </g>
  </g>
</svg>
