<svg xmlns="http://www.w3.org/2000/svg" width="554.309" height="554.599" viewBox="0 0 554.309 554.599">
  <g id="Groupe_93" data-name="Groupe 93" transform="translate(-658.064 -764.86)" opacity="0.023">
    <path id="Tracé_65" data-name="Tracé 65" d="M1295.654,1329.281c0-42.186-34.8-76.391-77.724-76.391s-77.723,34.205-77.723,76.391,34.8,76.4,77.723,76.4S1295.654,1371.474,1295.654,1329.281Z" transform="translate(-283.136 -286.593)" fill="#1d252c"/>
    <path id="Tracé_66" data-name="Tracé 66" d="M925.984,827.511v-62.62a277.723,277.723,0,0,0-53.12,6.915v62.226A144.417,144.417,0,0,1,728.447,978.449H665.311a277.537,277.537,0,0,0-7.139,52.632h64.241C834.843,1031.082,925.984,939.94,925.984,827.511Z" transform="translate(-0.063 -0.018)" fill="#1d252c"/>
    <path id="Tracé_67" data-name="Tracé 67" d="M873.123,848.028V791.722a275.73,275.73,0,0,0-53.731,22.188v46.225a65.334,65.334,0,0,1-65.333,65.334H707.683a275.717,275.717,0,0,0-22.054,52.988H742.7A130.428,130.428,0,0,0,873.123,848.028Z" transform="translate(-16.187 -15.774)" fill="#1d252c"/>
    <path id="Tracé_68" data-name="Tracé 68" d="M848.163,900.387V866.86A278.9,278.9,0,0,0,760.34,954.6h33.609A54.214,54.214,0,0,0,848.163,900.387Z" transform="translate(-60.061 -59.899)" fill="#1d252c"/>
    <path id="Tracé_69" data-name="Tracé 69" d="M742.167,1626.171H684.728a275.745,275.745,0,0,0,21.744,52.988h47.057a65.333,65.333,0,0,1,65.333,65.333v47.491a275.778,275.778,0,0,0,53.731,22.188V1756.6A130.427,130.427,0,0,0,742.167,1626.171Z" transform="translate(-15.658 -505.8)" fill="#1d252c"/>
    <path id="Tracé_70" data-name="Tracé 70" d="M792.822,1790.866h-34.4a278.888,278.888,0,0,0,88.615,89.008V1845.08A54.214,54.214,0,0,0,792.822,1790.866Z" transform="translate(-58.934 -602.516)" fill="#1d252c"/>
    <path id="Tracé_71" data-name="Tracé 71" d="M1612.726,978.431h-63.549A144.417,144.417,0,0,1,1404.76,834.014V771.7a277.762,277.762,0,0,0-53.12-6.836v62.632c0,112.429,91.142,203.571,203.571,203.571h64.461v-4.089A277.335,277.335,0,0,0,1612.726,978.431Z" transform="translate(-407.299)" fill="#1d252c"/>
    <path id="Tracé_72" data-name="Tracé 72" d="M1649.2,978.286h57.479a275.732,275.732,0,0,0-22.053-52.988h-46.79a65.334,65.334,0,0,1-65.333-65.334V813.518a275.727,275.727,0,0,0-53.731-22.087v56.427A130.428,130.428,0,0,0,1649.2,978.286Z" transform="translate(-505.446 -15.604)" fill="#1d252c"/>
    <path id="Tracé_73" data-name="Tracé 73" d="M1739.753,954.23h34.021a278.9,278.9,0,0,0-88.236-88v33.789A54.214,54.214,0,0,0,1739.753,954.23Z" transform="translate(-603.378 -59.527)" fill="#1d252c"/>
    <path id="Tracé_74" data-name="Tracé 74" d="M1518.772,1756.6v57.693A275.725,275.725,0,0,0,1572.5,1792.2v-47.712a65.333,65.333,0,0,1,65.333-65.333h47.471a275.7,275.7,0,0,0,21.744-52.988H1649.2A130.428,130.428,0,0,0,1518.772,1756.6Z" transform="translate(-505.446 -505.8)" fill="#1d252c"/>
    <path id="Tracé_75" data-name="Tracé 75" d="M1685.538,1845.08v35.055a278.89,278.89,0,0,0,89.028-89.269h-34.813A54.215,54.215,0,0,0,1685.538,1845.08Z" transform="translate(-603.378 -602.516)" fill="#1d252c"/>
    <path id="Tracé_76" data-name="Tracé 76" d="M722.349,1460.5H658.064a277.632,277.632,0,0,0,6.885,52.632h63.434A144.417,144.417,0,0,1,872.8,1657.548v63.493a276.828,276.828,0,0,0,35.913,5.811q6.566.626,13.217.946,1.991.095,3.99.159v-1.1h0V1664.07C925.921,1551.641,834.779,1460.5,722.349,1460.5Z" transform="translate(0 -408.51)" fill="#1d252c"/>
    <path id="Tracé_77" data-name="Tracé 77" d="M1351.64,1664.07v62.781h0v1.117q2-.064,3.99-.154,6.859-.319,13.63-.963a276.807,276.807,0,0,0,35.5-5.718v-63.585a144.417,144.417,0,0,1,144.417-144.417h63.847a277.423,277.423,0,0,0,6.648-47.277V1460.5h-64.461C1442.782,1460.5,1351.64,1551.641,1351.64,1664.07Z" transform="translate(-407.299 -408.51)" fill="#1d252c"/>
  </g>
</svg>
